<?xml version="1.0" encoding="utf-8"?>
<!-- Generator: Adobe Illustrator 24.1.1, SVG Export Plug-In . SVG Version: 6.00 Build 0)  -->
<svg version="1.1" id="Layer_1" xmlns="http://www.w3.org/2000/svg" xmlns:xlink="http://www.w3.org/1999/xlink" x="0px" y="0px"
	 viewBox="0 0 512 512" style="enable-background:new 0 0 512 512;" xml:space="preserve">
<style type="text/css">
	.st0{fill:#ECF0F1;}
	.st1{fill:#2ECC71;}
	.st2{fill:#BDC3C7;}
	.st3{fill:#27AE60;}
</style>
<g id="XMLID_1_">
	<polygon id="XMLID_3_" class="st0" points="182.7,0 329.3,0 329.3,195.3 500.2,463.2 451.3,512 60.7,512 11.8,463.2 182.7,195.3 	
		"/>
	<circle id="XMLID_4_" class="st1" cx="329.3" cy="329.3" r="36.2"/>
	<polygon id="XMLID_5_" class="st2" points="256,0 256,512 60.7,512 11.8,463.2 182.7,195.3 182.7,0 	"/>
	<circle id="XMLID_6_" class="st1" cx="231.6" cy="316.7" r="48.8"/>
	<path id="XMLID_7_" class="st3" d="M85.1,487.6h365.5c7.9-9.5,16.5-17.3,24.4-24.4c-32.3-48.8-65.4-97.7-97.7-146.5H133.1
		L36.2,463.2c7.9,7.1,16.5,15,24.4,24.4H85.1z"/>
	<path id="XMLID_8_" class="st1" d="M378.1,316.7l97.7,146.5c-7.9,7.1-16.5,15-24.4,24.4h-24.4H256V316.7H378.1z"/>
	<polygon id="XMLID_9_" class="st3" points="133.9,316.7 118.2,341.1 393.8,341.1 378.1,316.7 	"/>
	<polygon id="XMLID_10_" class="st2" points="36.2,487.6 60.7,512 451.3,512 475.8,487.6 	"/>
</g>
</svg>
